<svg width="100%" height="100%" viewBox="0 0 680 940" preserveAspectRatio="xMidYMid slice" xmlns="http://www.w3.org/2000/svg">
<defs>
  <filter id="blur-bg">
    <feGaussianBlur stdDeviation="1.8"/>
  </filter>
</defs>
<rect width="680" height="940" fill="#f5f0e8"/>
<g opacity="0.085" filter="url(#blur-bg)">
<rect x="0" y="40" width="680" height="5" fill="#c8a87a"/><rect x="5" y="5" width="14" height="35" fill="#5a9a5a"/><polygon points="27,40 21,18 34,18" fill="#8e44ad"/><rect x="35" y="6" width="11" height="34" fill="#d4845a"/><rect x="48" y="27" width="37" height="13" fill="#9b59b6"/><rect x="48" y="8" width="37" height="16" fill="#f39c12"/><rect x="48" y="-8" width="37" height="16" fill="#3b82c4"/><rect x="87" y="6" width="12" height="34" fill="#d4845a"/><rect x="102" y="1" width="11" height="39" fill="#5a9a5a"/><rect x="116" y="26" width="14" height="14" rx="2" fill="#f39c12"/><circle cx="123" cy="33" r="1.2" fill="#fdfaf4"/><line x1="134" y1="40" x2="134" y2="18" stroke="#4a4640" stroke-width="1"/><ellipse cx="134" cy="18" rx="3" ry="4" fill="#5a9a5a"/><rect x="139" y="27" width="13" height="13" rx="2" fill="#16a085"/><circle cx="145" cy="34" r="1.2" fill="#fdfaf4"/><circle cx="159" cy="36" r="4" fill="#27ae60"/><line x1="165" y1="40" x2="165" y2="21" stroke="#4a4640" stroke-width="1"/><ellipse cx="165" cy="21" rx="3" ry="4" fill="#16a085"/><rect x="170" y="1" width="20" height="39" fill="#3498db"/><rect x="192" y="4" width="20" height="36" fill="#2c3e50"/><rect x="213" y="27" width="27" height="13" fill="#2980b9"/><rect x="213" y="10" width="27" height="15" fill="#f39c12"/><rect x="242" y="31" width="9" height="9" rx="2" fill="#e67e22"/><circle cx="246" cy="36" r="1.2" fill="#fdfaf4"/><rect x="253" y="28" width="12" height="12" rx="2" fill="#e8b84b"/><circle cx="259" cy="34" r="1.2" fill="#fdfaf4"/><rect x="268" y="-10" width="19" height="50" fill="#c0392b"/><circle cx="297" cy="33" r="7" fill="#27ae60"/><rect x="308" y="-11" width="13" height="51" fill="#8e44ad"/><polygon points="342.7,25.0 342.7,35.0 334.0,40.0 325.3,35.0 325.3,25.0 334.0,20.0" fill="#d4845a"/><line x1="347" y1="40" x2="347" y2="22" stroke="#4a4640" stroke-width="1"/><ellipse cx="347" cy="22" rx="3" ry="4" fill="#9b59b6"/><rect x="356" y="9" width="10" height="31" fill="#1abc9c"/><polygon points="373,40 368,25 379,25" fill="#e74c3c"/><rect x="383" y="25" width="34" height="15" fill="#3b82c4"/><rect x="383" y="10" width="34" height="15" fill="#5a9a5a"/><rect x="383" y="-8" width="34" height="16" fill="#f39c12"/><rect x="420" y="-2" width="12" height="42" fill="#5a9a5a"/><line x1="433" y1="40" x2="433" y2="22" stroke="#4a4640" stroke-width="1"/><ellipse cx="433" cy="22" rx="3" ry="4" fill="#f39c12"/><polygon points="458.8,26.5 458.8,35.5 451.0,40.0 443.2,35.5 443.2,26.5 451.0,22.0" fill="#5a9a5a"/><rect x="462" y="-5" width="12" height="45" fill="#8e44ad"/><rect x="475" y="29" width="23" height="11" fill="#16a085"/><rect x="475" y="18" width="23" height="11" fill="#e8b84b"/><rect x="475" y="10" width="23" height="10" fill="#c0392b"/><line x1="502" y1="40" x2="502" y2="16" stroke="#4a4640" stroke-width="1"/><ellipse cx="502" cy="16" rx="3" ry="4" fill="#c0392b"/><circle cx="516" cy="32" r="8" fill="#8e44ad"/><rect x="526" y="25" width="33" height="15" fill="#27ae60"/><rect x="526" y="14" width="33" height="13" fill="#16a085"/><polygon points="580.7,25.0 580.7,35.0 572.0,40.0 563.3,35.0 563.3,25.0 572.0,20.0" fill="#2980b9"/><rect x="583" y="12" width="15" height="28" fill="#9b59b6"/><rect x="600" y="-8" width="21" height="48" fill="#9b59b6"/><rect x="622" y="2" width="10" height="38" fill="#9b59b6"/><rect x="633" y="6" width="17" height="34" fill="#9b59b6"/><rect x="652" y="-1" width="17" height="41" fill="#1abc9c"/><rect x="0" y="118" width="680" height="5" fill="#c8a87a"/><rect x="5" y="79" width="16" height="39" fill="#5a9a5a"/><rect x="25" y="105" width="21" height="13" fill="#e8b84b"/><rect x="25" y="86" width="21" height="16" fill="#e67e22"/><rect x="47" y="76" width="18" height="42" fill="#9b59b6"/><rect x="67" y="83" width="17" height="35" fill="#d4845a"/><rect x="85" y="105" width="13" height="13" rx="2" fill="#2980b9"/><circle cx="91" cy="112" r="1.2" fill="#fdfaf4"/><circle cx="107" cy="110" r="8" fill="#e8b84b"/><line x1="116" y1="118" x2="116" y2="99" stroke="#4a4640" stroke-width="1"/><ellipse cx="116" cy="99" rx="3" ry="4" fill="#c0392b"/><rect x="122" y="107" width="26" height="11" fill="#e8b84b"/><rect x="122" y="98" width="26" height="10" fill="#3498db"/><rect x="122" y="82" width="26" height="12" fill="#3498db"/><rect x="152" y="73" width="21" height="45" fill="#16a085"/><rect x="177" y="89" width="13" height="29" fill="#8e44ad"/><rect x="191" y="75" width="19" height="43" fill="#e67e22"/><line x1="212" y1="118" x2="212" y2="101" stroke="#4a4640" stroke-width="1"/><ellipse cx="212" cy="101" rx="3" ry="4" fill="#e8b84b"/><rect x="218" y="104" width="27" height="14" fill="#5a9a5a"/><rect x="218" y="90" width="27" height="14" fill="#9b59b6"/><rect x="218" y="76" width="27" height="14" fill="#e8b84b"/><circle cx="254" cy="110" r="8" fill="#d4845a"/><rect x="265" y="80" width="21" height="38" fill="#f39c12"/><rect x="288" y="70" width="20" height="48" fill="#f39c12"/><rect x="311" y="88" width="22" height="30" fill="#2980b9"/><circle cx="342" cy="110" r="8" fill="#2980b9"/><rect x="351" y="106" width="36" height="12" fill="#8e44ad"/><rect x="351" y="96" width="36" height="11" fill="#c0392b"/><rect x="351" y="82" width="36" height="12" fill="#2c3e50"/><rect x="389" y="104" width="14" height="14" rx="2" fill="#2980b9"/><circle cx="396" cy="111" r="1.2" fill="#fdfaf4"/><circle cx="414" cy="110" r="8" fill="#3b82c4"/><line x1="425" y1="118" x2="425" y2="100" stroke="#4a4640" stroke-width="1"/><ellipse cx="425" cy="100" rx="3" ry="4" fill="#5a9a5a"/><polygon points="452.5,101.5 452.5,112.5 443.0,118.0 433.5,112.5 433.5,101.5 443.0,96.0" fill="#5a9a5a"/><rect x="456" y="68" width="13" height="50" fill="#f39c12"/><circle cx="478" cy="112" r="6" fill="#27ae60"/><polygon points="501.1,107.5 501.1,114.5 495.0,118.0 488.9,114.5 488.9,107.5 495.0,104.0" fill="#f39c12"/><rect x="503" y="109" width="9" height="9" rx="2" fill="#d4845a"/><circle cx="507" cy="114" r="1.2" fill="#fdfaf4"/><polygon points="519,118 513,100 526,100" fill="#e67e22"/><rect x="528" y="108" width="33" height="10" fill="#5a9a5a"/><rect x="528" y="90" width="33" height="14" fill="#8e44ad"/><rect x="562" y="108" width="24" height="10" fill="#8e44ad"/><rect x="562" y="94" width="24" height="12" fill="#16a085"/><rect x="562" y="82" width="24" height="12" fill="#e8b84b"/><circle cx="594" cy="112" r="6" fill="#9b59b6"/><line x1="604" y1="118" x2="604" y2="99" stroke="#4a4640" stroke-width="1"/><ellipse cx="604" cy="99" rx="3" ry="4" fill="#8e44ad"/><polygon points="623.1,107.5 623.1,114.5 617.0,118.0 610.9,114.5 610.9,107.5 617.0,104.0" fill="#e74c3c"/><polygon points="631,118 626,101 637,101" fill="#e67e22"/><polygon points="644,118 640,98 648,98" fill="#e74c3c"/><rect x="649" y="79" width="17" height="39" fill="#1abc9c"/><rect x="669" y="84" width="20" height="34" fill="#9b59b6"/><rect x="0" y="196" width="680" height="5" fill="#c8a87a"/><rect x="5" y="144" width="11" height="52" fill="#e67e22"/><circle cx="26" cy="189" r="7" fill="#2c3e50"/><rect x="36" y="163" width="14" height="33" fill="#3b82c4"/><rect x="53" y="157" width="16" height="39" fill="#e8b84b"/><rect x="72" y="182" width="36" height="14" fill="#3498db"/><rect x="72" y="172" width="36" height="12" fill="#27ae60"/><rect x="109" y="151" width="22" height="45" fill="#d4845a"/><rect x="133" y="158" width="20" height="38" fill="#2c3e50"/><circle cx="162" cy="190" r="6" fill="#5a9a5a"/><rect x="171" y="159" width="21" height="37" fill="#d4845a"/><rect x="194" y="147" width="16" height="49" fill="#27ae60"/><rect x="212" y="159" width="10" height="37" fill="#16a085"/><rect x="225" y="149" width="19" height="47" fill="#27ae60"/><rect x="247" y="162" width="20" height="34" fill="#2980b9"/><circle cx="277" cy="190" r="6" fill="#e74c3c"/><rect x="286" y="186" width="10" height="10" rx="2" fill="#c0392b"/><circle cx="291" cy="191" r="1.2" fill="#fdfaf4"/><rect x="299" y="186" width="10" height="10" rx="2" fill="#9b59b6"/><circle cx="304" cy="191" r="1.2" fill="#fdfaf4"/><rect x="310" y="149" width="17" height="47" fill="#e8b84b"/><rect x="328" y="150" width="20" height="46" fill="#2980b9"/><rect x="350" y="180" width="27" height="16" fill="#3b82c4"/><rect x="350" y="164" width="27" height="16" fill="#5a9a5a"/><rect x="381" y="152" width="21" height="44" fill="#9b59b6"/><rect x="406" y="180" width="23" height="16" fill="#8e44ad"/><rect x="406" y="166" width="23" height="15" fill="#2980b9"/><rect x="406" y="148" width="23" height="16" fill="#e67e22"/><rect x="433" y="183" width="13" height="13" rx="2" fill="#d4845a"/><circle cx="439" cy="190" r="1.2" fill="#fdfaf4"/><polygon points="455,196 450,175 461,175" fill="#e74c3c"/><rect x="464" y="185" width="11" height="11" rx="2" fill="#9b59b6"/><circle cx="469" cy="191" r="1.2" fill="#fdfaf4"/><rect x="479" y="146" width="11" height="50" fill="#9b59b6"/><rect x="493" y="151" width="15" height="45" fill="#9b59b6"/><rect x="509" y="146" width="16" height="50" fill="#8e44ad"/><rect x="527" y="158" width="16" height="38" fill="#27ae60"/><rect x="547" y="156" width="16" height="40" fill="#d4845a"/><rect x="564" y="180" width="31" height="16" fill="#3498db"/><rect x="564" y="168" width="31" height="14" fill="#d4845a"/><rect x="564" y="157" width="31" height="13" fill="#9b59b6"/><rect x="597" y="156" width="10" height="40" fill="#f39c12"/><polygon points="617,196 610,175 624,175" fill="#3498db"/><polygon points="646.5,179.5 646.5,190.5 637.0,196.0 627.5,190.5 627.5,179.5 637.0,174.0" fill="#3b82c4"/><circle cx="654" cy="191" r="5" fill="#c0392b"/><rect x="663" y="158" width="16" height="38" fill="#e74c3c"/><rect x="0" y="274" width="680" height="5" fill="#c8a87a"/><rect x="5" y="234" width="22" height="40" fill="#2980b9"/><rect x="30" y="231" width="11" height="43" fill="#d4845a"/><line x1="42" y1="274" x2="42" y2="253" stroke="#4a4640" stroke-width="1"/><ellipse cx="42" cy="253" rx="3" ry="4" fill="#e8b84b"/><polygon points="54,274 48,260 61,260" fill="#c0392b"/><rect x="62" y="227" width="10" height="47" fill="#9b59b6"/><rect x="74" y="243" width="20" height="31" fill="#9b59b6"/><circle cx="102" cy="268" r="6" fill="#2980b9"/><polygon points="114,274 110,256 119,256" fill="#5a9a5a"/><line x1="120" y1="274" x2="120" y2="249" stroke="#4a4640" stroke-width="1"/><ellipse cx="120" cy="249" rx="3" ry="4" fill="#3b82c4"/><rect x="130" y="240" width="21" height="34" fill="#3498db"/><rect x="152" y="237" width="22" height="37" fill="#9b59b6"/><rect x="175" y="225" width="16" height="49" fill="#e8b84b"/><rect x="194" y="258" width="30" height="16" fill="#d4845a"/><rect x="194" y="254" width="30" height="10" fill="#1abc9c"/><circle cx="235" cy="267" r="7" fill="#2c3e50"/><rect x="244" y="226" width="18" height="48" fill="#d4845a"/><rect x="265" y="258" width="38" height="16" fill="#e67e22"/><rect x="265" y="242" width="38" height="16" fill="#9b59b6"/><rect x="265" y="238" width="38" height="12" fill="#c0392b"/><polygon points="313,274 307,254 319,254" fill="#9b59b6"/><rect x="322" y="263" width="30" height="11" fill="#1abc9c"/><rect x="322" y="242" width="30" height="16" fill="#2c3e50"/><rect x="355" y="224" width="19" height="50" fill="#e67e22"/><rect x="377" y="259" width="26" height="15" fill="#9b59b6"/><rect x="377" y="248" width="26" height="13" fill="#d4845a"/><circle cx="412" cy="267" r="7" fill="#1abc9c"/><rect x="423" y="234" width="13" height="40" fill="#3b82c4"/><circle cx="444" cy="268" r="6" fill="#16a085"/><rect x="454" y="229" width="21" height="45" fill="#2c3e50"/><circle cx="484" cy="268" r="6" fill="#2c3e50"/><rect x="493" y="240" width="21" height="34" fill="#f39c12"/><polygon points="524,274 517,258 531,258" fill="#5a9a5a"/><polygon points="538,274 533,252 543,252" fill="#27ae60"/><rect x="546" y="263" width="11" height="11" rx="2" fill="#5a9a5a"/><circle cx="551" cy="269" r="1.2" fill="#fdfaf4"/><rect x="559" y="224" width="10" height="50" fill="#2c3e50"/><rect x="571" y="229" width="10" height="45" fill="#f39c12"/><circle cx="591" cy="267" r="7" fill="#8e44ad"/><rect x="599" y="262" width="35" height="12" fill="#2980b9"/><rect x="599" y="254" width="35" height="10" fill="#e74c3c"/><rect x="599" y="226" width="35" height="16" fill="#f39c12"/><rect x="638" y="262" width="12" height="12" rx="2" fill="#5a9a5a"/><circle cx="644" cy="268" r="1.2" fill="#fdfaf4"/><rect x="654" y="258" width="21" height="16" fill="#8e44ad"/><rect x="654" y="254" width="21" height="10" fill="#16a085"/><rect x="0" y="352" width="680" height="5" fill="#c8a87a"/><rect x="5" y="339" width="33" height="13" fill="#3498db"/><rect x="5" y="328" width="33" height="12" fill="#2980b9"/><rect x="42" y="337" width="21" height="15" fill="#27ae60"/><rect x="42" y="328" width="21" height="12" fill="#27ae60"/><rect x="64" y="322" width="18" height="30" fill="#e74c3c"/><rect x="84" y="305" width="21" height="47" fill="#3b82c4"/><rect x="109" y="302" width="14" height="50" fill="#16a085"/><rect x="126" y="316" width="13" height="36" fill="#2980b9"/><rect x="141" y="304" width="13" height="48" fill="#d4845a"/><rect x="156" y="343" width="9" height="9" rx="2" fill="#f39c12"/><circle cx="160" cy="348" r="1.2" fill="#fdfaf4"/><polygon points="172,352 166,334 178,334" fill="#e74c3c"/><rect x="182" y="338" width="29" height="14" fill="#f39c12"/><rect x="182" y="326" width="29" height="13" fill="#1abc9c"/><rect x="182" y="310" width="29" height="14" fill="#c0392b"/><polygon points="218,352 212,334 224,334" fill="#d4845a"/><rect x="225" y="306" width="20" height="46" fill="#c0392b"/><rect x="246" y="340" width="25" height="12" fill="#2980b9"/><rect x="246" y="324" width="25" height="14" fill="#e74c3c"/><rect x="246" y="307" width="25" height="15" fill="#d4845a"/><rect x="275" y="337" width="33" height="15" fill="#e67e22"/><rect x="275" y="320" width="33" height="16" fill="#5a9a5a"/><rect x="275" y="316" width="33" height="12" fill="#e74c3c"/><rect x="312" y="300" width="16" height="52" fill="#1abc9c"/><rect x="329" y="314" width="14" height="38" fill="#2980b9"/><rect x="344" y="343" width="9" height="9" rx="2" fill="#3498db"/><circle cx="348" cy="348" r="1.2" fill="#fdfaf4"/><rect x="357" y="313" width="18" height="39" fill="#d4845a"/><polygon points="383,352 379,334 388,334" fill="#2980b9"/><rect x="390" y="309" width="21" height="43" fill="#16a085"/><line x1="412" y1="352" x2="412" y2="327" stroke="#4a4640" stroke-width="1"/><ellipse cx="412" cy="327" rx="3" ry="4" fill="#3b82c4"/><rect x="418" y="307" width="10" height="45" fill="#e74c3c"/><rect x="432" y="310" width="11" height="42" fill="#c0392b"/><rect x="444" y="336" width="29" height="16" fill="#d4845a"/><rect x="444" y="326" width="29" height="13" fill="#1abc9c"/><rect x="444" y="313" width="29" height="13" fill="#9b59b6"/><rect x="475" y="308" width="19" height="44" fill="#3498db"/><rect x="496" y="311" width="22" height="41" fill="#c0392b"/><rect x="521" y="341" width="11" height="11" rx="2" fill="#f39c12"/><circle cx="526" cy="347" r="1.2" fill="#fdfaf4"/><rect x="535" y="340" width="12" height="12" rx="2" fill="#1abc9c"/><circle cx="541" cy="346" r="1.2" fill="#fdfaf4"/><rect x="551" y="307" width="22" height="45" fill="#2c3e50"/><line x1="577" y1="352" x2="577" y2="333" stroke="#4a4640" stroke-width="1"/><ellipse cx="577" cy="333" rx="3" ry="4" fill="#2980b9"/><rect x="587" y="340" width="27" height="12" fill="#e8b84b"/><rect x="587" y="322" width="27" height="15" fill="#1abc9c"/><rect x="587" y="313" width="27" height="13" fill="#3498db"/><line x1="616" y1="352" x2="616" y2="334" stroke="#4a4640" stroke-width="1"/><ellipse cx="616" cy="334" rx="3" ry="4" fill="#1abc9c"/><rect x="625" y="340" width="12" height="12" rx="2" fill="#e67e22"/><circle cx="631" cy="346" r="1.2" fill="#fdfaf4"/><rect x="638" y="311" width="12" height="41" fill="#2980b9"/><rect x="652" y="337" width="28" height="15" fill="#3498db"/><rect x="652" y="320" width="28" height="16" fill="#c0392b"/><rect x="652" y="304" width="28" height="16" fill="#e67e22"/><rect x="0" y="430" width="680" height="5" fill="#c8a87a"/><circle cx="12" cy="423" r="7" fill="#e67e22"/><rect x="20" y="393" width="20" height="37" fill="#c0392b"/><rect x="42" y="378" width="11" height="52" fill="#c0392b"/><rect x="54" y="402" width="14" height="28" fill="#2980b9"/><polygon points="74,430 69,411 79,411" fill="#e67e22"/><rect x="82" y="389" width="18" height="41" fill="#d4845a"/><rect x="102" y="390" width="19" height="40" fill="#e74c3c"/><polygon points="137.9,418.0 137.9,426.0 131.0,430.0 124.1,426.0 124.1,418.0 131.0,414.0" fill="#1abc9c"/><circle cx="148" cy="423" r="7" fill="#2980b9"/><polygon points="176.7,415.0 176.7,425.0 168.0,430.0 159.3,425.0 159.3,415.0 168.0,410.0" fill="#3b82c4"/><rect x="181" y="384" width="15" height="46" fill="#e74c3c"/><circle cx="206" cy="423" r="7" fill="#d4845a"/><line x1="216" y1="430" x2="216" y2="407" stroke="#4a4640" stroke-width="1"/><ellipse cx="216" cy="407" rx="3" ry="4" fill="#27ae60"/><rect x="221" y="384" width="15" height="46" fill="#9b59b6"/><rect x="239" y="390" width="20" height="40" fill="#16a085"/><rect x="262" y="414" width="21" height="16" fill="#16a085"/><rect x="262" y="402" width="21" height="14" fill="#9b59b6"/><rect x="262" y="397" width="21" height="11" fill="#2c3e50"/><circle cx="294" cy="421" r="9" fill="#f39c12"/><polygon points="318.1,419.5 318.1,426.5 312.0,430.0 305.9,426.5 305.9,419.5 312.0,416.0" fill="#5a9a5a"/><rect x="322" y="379" width="15" height="51" fill="#2980b9"/><polygon points="355.8,416.5 355.8,425.5 348.0,430.0 340.2,425.5 340.2,416.5 348.0,412.0" fill="#c0392b"/><rect x="361" y="385" width="22" height="45" fill="#e74c3c"/><rect x="386" y="419" width="11" height="11" rx="2" fill="#f39c12"/><circle cx="391" cy="425" r="1.2" fill="#fdfaf4"/><polygon points="406,430 401,415 411,415" fill="#16a085"/><rect x="415" y="381" width="13" height="49" fill="#c0392b"/><rect x="432" y="402" width="16" height="28" fill="#2c3e50"/><rect x="451" y="420" width="28" height="10" fill="#2c3e50"/><rect x="451" y="404" width="28" height="13" fill="#9b59b6"/><rect x="451" y="388" width="28" height="14" fill="#3b82c4"/><circle cx="491" cy="421" r="9" fill="#9b59b6"/><circle cx="508" cy="426" r="4" fill="#16a085"/><line x1="514" y1="430" x2="514" y2="410" stroke="#4a4640" stroke-width="1"/><ellipse cx="514" cy="410" rx="3" ry="4" fill="#e8b84b"/><rect x="522" y="398" width="18" height="32" fill="#5a9a5a"/><rect x="544" y="380" width="21" height="50" fill="#2980b9"/><polygon points="582.1,419.5 582.1,426.5 576.0,430.0 569.9,426.5 569.9,419.5 576.0,416.0" fill="#8e44ad"/><line x1="587" y1="430" x2="587" y2="410" stroke="#4a4640" stroke-width="1"/><ellipse cx="587" cy="410" rx="3" ry="4" fill="#d4845a"/><rect x="592" y="395" width="17" height="35" fill="#2c3e50"/><line x1="612" y1="430" x2="612" y2="409" stroke="#4a4640" stroke-width="1"/><ellipse cx="612" cy="409" rx="3" ry="4" fill="#5a9a5a"/><rect x="621" y="396" width="14" height="34" fill="#2c3e50"/><rect x="636" y="382" width="13" height="48" fill="#2980b9"/><polygon points="654,430 650,414 659,414" fill="#e8b84b"/><rect x="661" y="417" width="13" height="13" rx="2" fill="#c0392b"/><circle cx="667" cy="424" r="1.2" fill="#fdfaf4"/><rect x="0" y="508" width="680" height="5" fill="#c8a87a"/><rect x="5" y="498" width="10" height="10" rx="2" fill="#27ae60"/><circle cx="10" cy="503" r="1.2" fill="#fdfaf4"/><polygon points="24,508 18,494 30,494" fill="#8e44ad"/><line x1="33" y1="508" x2="33" y2="484" stroke="#4a4640" stroke-width="1"/><ellipse cx="33" cy="484" rx="3" ry="4" fill="#8e44ad"/><rect x="40" y="476" width="10" height="32" fill="#e74c3c"/><polygon points="55,508 51,489 60,489" fill="#2c3e50"/><rect x="61" y="457" width="12" height="51" fill="#e74c3c"/><polygon points="82,508 77,487 88,487" fill="#5a9a5a"/><rect x="91" y="495" width="27" height="13" fill="#16a085"/><rect x="91" y="488" width="27" height="10" fill="#3b82c4"/><rect x="122" y="465" width="11" height="43" fill="#3498db"/><polygon points="153.8,494.5 153.8,503.5 146.0,508.0 138.2,503.5 138.2,494.5 146.0,490.0" fill="#c0392b"/><rect x="157" y="460" width="19" height="48" fill="#c0392b"/><line x1="179" y1="508" x2="179" y2="484" stroke="#4a4640" stroke-width="1"/><ellipse cx="179" cy="484" rx="3" ry="4" fill="#3498db"/><rect x="186" y="492" width="33" height="16" fill="#5a9a5a"/><rect x="186" y="482" width="33" height="13" fill="#27ae60"/><rect x="223" y="468" width="17" height="40" fill="#9b59b6"/><rect x="244" y="459" width="15" height="49" fill="#5a9a5a"/><line x1="262" y1="508" x2="262" y2="482" stroke="#4a4640" stroke-width="1"/><ellipse cx="262" cy="482" rx="3" ry="4" fill="#2c3e50"/><rect x="270" y="478" width="11" height="30" fill="#c0392b"/><polygon points="290,508 285,492 295,492" fill="#5a9a5a"/><circle cx="303" cy="501" r="7" fill="#e67e22"/><rect x="313" y="494" width="14" height="14" rx="2" fill="#d4845a"/><circle cx="320" cy="501" r="1.2" fill="#fdfaf4"/><rect x="328" y="497" width="31" height="11" fill="#27ae60"/><rect x="328" y="486" width="31" height="11" fill="#1abc9c"/><rect x="360" y="497" width="11" height="11" rx="2" fill="#2c3e50"/><circle cx="365" cy="503" r="1.2" fill="#fdfaf4"/><rect x="372" y="498" width="33" height="10" fill="#f39c12"/><rect x="372" y="484" width="33" height="12" fill="#e74c3c"/><rect x="408" y="476" width="12" height="32" fill="#e67e22"/><rect x="424" y="480" width="20" height="28" fill="#c0392b"/><rect x="445" y="470" width="17" height="38" fill="#27ae60"/><rect x="464" y="456" width="15" height="52" fill="#2c3e50"/><rect x="480" y="461" width="22" height="47" fill="#e8b84b"/><rect x="503" y="467" width="20" height="41" fill="#c0392b"/><rect x="527" y="456" width="13" height="52" fill="#2980b9"/><rect x="541" y="459" width="14" height="49" fill="#2c3e50"/><rect x="559" y="461" width="16" height="47" fill="#16a085"/><rect x="576" y="456" width="13" height="52" fill="#3b82c4"/><rect x="591" y="480" width="11" height="28" fill="#f39c12"/><rect x="606" y="463" width="16" height="45" fill="#d4845a"/><rect x="624" y="479" width="21" height="29" fill="#2c3e50"/><rect x="649" y="494" width="22" height="14" fill="#d4845a"/><rect x="649" y="478" width="22" height="15" fill="#3498db"/><rect x="649" y="472" width="22" height="12" fill="#d4845a"/><rect x="0" y="586" width="680" height="5" fill="#c8a87a"/><rect x="5" y="553" width="15" height="33" fill="#3498db"/><rect x="24" y="551" width="11" height="35" fill="#2c3e50"/><rect x="39" y="575" width="32" height="11" fill="#e67e22"/><rect x="39" y="554" width="32" height="16" fill="#e67e22"/><rect x="39" y="556" width="32" height="10" fill="#e74c3c"/><polygon points="88.8,572.5 88.8,581.5 81.0,586.0 73.2,581.5 73.2,572.5 81.0,568.0" fill="#27ae60"/><rect x="93" y="550" width="12" height="36" fill="#8e44ad"/><rect x="107" y="573" width="22" height="13" fill="#1abc9c"/><rect x="107" y="556" width="22" height="15" fill="#2980b9"/><rect x="132" y="543" width="11" height="43" fill="#e67e22"/><polygon points="153,586 147,572 159,572" fill="#16a085"/><rect x="162" y="557" width="17" height="29" fill="#c0392b"/><rect x="180" y="577" width="9" height="9" rx="2" fill="#2c3e50"/><circle cx="184" cy="582" r="1.2" fill="#fdfaf4"/><rect x="190" y="570" width="37" height="16" fill="#2980b9"/><rect x="190" y="562" width="37" height="12" fill="#27ae60"/><line x1="231" y1="586" x2="231" y2="563" stroke="#4a4640" stroke-width="1"/><ellipse cx="231" cy="563" rx="3" ry="4" fill="#8e44ad"/><line x1="236" y1="586" x2="236" y2="569" stroke="#4a4640" stroke-width="1"/><ellipse cx="236" cy="569" rx="3" ry="4" fill="#e67e22"/><rect x="245" y="544" width="21" height="42" fill="#e74c3c"/><rect x="270" y="546" width="14" height="40" fill="#e74c3c"/><circle cx="292" cy="582" r="4" fill="#e67e22"/><rect x="299" y="537" width="18" height="49" fill="#c0392b"/><rect x="321" y="539" width="20" height="47" fill="#16a085"/><rect x="343" y="554" width="20" height="32" fill="#e67e22"/><line x1="366" y1="586" x2="366" y2="560" stroke="#4a4640" stroke-width="1"/><ellipse cx="366" cy="560" rx="3" ry="4" fill="#16a085"/><rect x="374" y="571" width="22" height="15" fill="#3498db"/><rect x="374" y="554" width="22" height="16" fill="#e67e22"/><rect x="374" y="541" width="22" height="15" fill="#8e44ad"/><rect x="397" y="575" width="20" height="11" fill="#16a085"/><rect x="397" y="562" width="20" height="12" fill="#27ae60"/><rect x="397" y="553" width="20" height="11" fill="#1abc9c"/><rect x="419" y="555" width="14" height="31" fill="#8e44ad"/><polygon points="454.5,569.5 454.5,580.5 445.0,586.0 435.5,580.5 435.5,569.5 445.0,564.0" fill="#e67e22"/><rect x="458" y="536" width="12" height="50" fill="#3498db"/><rect x="472" y="537" width="15" height="49" fill="#2980b9"/><rect x="489" y="574" width="34" height="12" fill="#9b59b6"/><rect x="489" y="554" width="34" height="16" fill="#1abc9c"/><circle cx="533" cy="578" r="8" fill="#2c3e50"/><polygon points="552,586 545,566 559,566" fill="#2980b9"/><rect x="563" y="573" width="13" height="13" rx="2" fill="#e74c3c"/><circle cx="569" cy="580" r="1.2" fill="#fdfaf4"/><rect x="578" y="547" width="17" height="39" fill="#f39c12"/><rect x="596" y="553" width="22" height="33" fill="#5a9a5a"/><polygon points="635.9,574.0 635.9,582.0 629.0,586.0 622.1,582.0 622.1,574.0 629.0,570.0" fill="#2980b9"/><line x1="641" y1="586" x2="641" y2="567" stroke="#4a4640" stroke-width="1"/><ellipse cx="641" cy="567" rx="3" ry="4" fill="#c0392b"/><line x1="649" y1="586" x2="649" y2="564" stroke="#4a4640" stroke-width="1"/><ellipse cx="649" cy="564" rx="3" ry="4" fill="#2c3e50"/><rect x="654" y="574" width="27" height="12" fill="#c0392b"/><rect x="654" y="566" width="27" height="10" fill="#9b59b6"/><rect x="654" y="556" width="27" height="10" fill="#e67e22"/><rect x="0" y="664" width="680" height="5" fill="#c8a87a"/><rect x="5" y="621" width="14" height="43" fill="#8e44ad"/><rect x="21" y="634" width="10" height="30" fill="#1abc9c"/><rect x="32" y="619" width="12" height="45" fill="#f39c12"/><polygon points="52,664 48,646 57,646" fill="#5a9a5a"/><rect x="58" y="617" width="20" height="47" fill="#e8b84b"/><rect x="82" y="617" width="17" height="47" fill="#c0392b"/><circle cx="106" cy="658" r="6" fill="#9b59b6"/><rect x="116" y="649" width="27" height="15" fill="#e74c3c"/><rect x="116" y="636" width="27" height="14" fill="#c0392b"/><rect x="116" y="634" width="27" height="10" fill="#2c3e50"/><polygon points="157.1,653.5 157.1,660.5 151.0,664.0 144.9,660.5 144.9,653.5 151.0,650.0" fill="#3498db"/><rect x="162" y="625" width="10" height="39" fill="#2c3e50"/><rect x="173" y="616" width="20" height="48" fill="#2c3e50"/><rect x="194" y="619" width="15" height="45" fill="#e67e22"/><rect x="212" y="650" width="14" height="14" rx="2" fill="#e74c3c"/><circle cx="219" cy="657" r="1.2" fill="#fdfaf4"/><circle cx="235" cy="659" r="5" fill="#1abc9c"/><rect x="241" y="635" width="13" height="29" fill="#2980b9"/><rect x="256" y="620" width="14" height="44" fill="#e8b84b"/><rect x="274" y="616" width="22" height="48" fill="#1abc9c"/><rect x="298" y="635" width="22" height="29" fill="#16a085"/><rect x="323" y="623" width="15" height="41" fill="#f39c12"/><polygon points="360.7,649.0 360.7,659.0 352.0,664.0 343.3,659.0 343.3,649.0 352.0,644.0" fill="#2980b9"/><rect x="365" y="648" width="35" height="16" fill="#f39c12"/><rect x="365" y="634" width="35" height="15" fill="#c0392b"/><rect x="365" y="634" width="35" height="10" fill="#d4845a"/><rect x="404" y="652" width="30" height="12" fill="#c0392b"/><rect x="404" y="640" width="30" height="12" fill="#16a085"/><rect x="438" y="625" width="17" height="39" fill="#d4845a"/><polygon points="464,664 459,644 469,644" fill="#e8b84b"/><rect x="472" y="624" width="20" height="40" fill="#e8b84b"/><line x1="495" y1="664" x2="495" y2="646" stroke="#4a4640" stroke-width="1"/><ellipse cx="495" cy="646" rx="3" ry="4" fill="#e74c3c"/><rect x="504" y="629" width="11" height="35" fill="#2980b9"/><rect x="518" y="635" width="19" height="29" fill="#2c3e50"/><line x1="539" y1="664" x2="539" y2="643" stroke="#4a4640" stroke-width="1"/><ellipse cx="539" cy="643" rx="3" ry="4" fill="#2980b9"/><rect x="547" y="652" width="36" height="12" fill="#3498db"/><rect x="547" y="642" width="36" height="11" fill="#f39c12"/><rect x="547" y="634" width="36" height="10" fill="#5a9a5a"/><rect x="585" y="648" width="37" height="16" fill="#f39c12"/><rect x="585" y="634" width="37" height="15" fill="#f39c12"/><line x1="626" y1="664" x2="626" y2="644" stroke="#4a4640" stroke-width="1"/><ellipse cx="626" cy="644" rx="3" ry="4" fill="#27ae60"/><rect x="636" y="634" width="12" height="30" fill="#1abc9c"/><polygon points="670.7,649.0 670.7,659.0 662.0,664.0 653.3,659.0 653.3,649.0 662.0,644.0" fill="#e74c3c"/><rect x="0" y="742" width="680" height="5" fill="#c8a87a"/><circle cx="14" cy="733" r="9" fill="#e67e22"/><polygon points="38.9,730.0 38.9,738.0 32.0,742.0 25.1,738.0 25.1,730.0 32.0,726.0" fill="#16a085"/><rect x="42" y="731" width="23" height="11" fill="#8e44ad"/><rect x="42" y="722" width="23" height="10" fill="#1abc9c"/><rect x="68" y="732" width="37" height="10" fill="#c0392b"/><rect x="68" y="716" width="37" height="13" fill="#16a085"/><polygon points="116,742 109,727 123,727" fill="#d4845a"/><circle cx="132" cy="735" r="7" fill="#e67e22"/><rect x="143" y="697" width="22" height="45" fill="#2c3e50"/><rect x="167" y="711" width="10" height="31" fill="#8e44ad"/><rect x="179" y="692" width="15" height="50" fill="#16a085"/><line x1="196" y1="742" x2="196" y2="718" stroke="#4a4640" stroke-width="1"/><ellipse cx="196" cy="718" rx="3" ry="4" fill="#2c3e50"/><rect x="203" y="697" width="20" height="45" fill="#c0392b"/><circle cx="234" cy="734" r="8" fill="#8e44ad"/><rect x="243" y="727" width="38" height="15" fill="#e74c3c"/><rect x="243" y="710" width="38" height="16" fill="#e67e22"/><rect x="282" y="690" width="20" height="52" fill="#3b82c4"/><polygon points="310,742 305,728 316,728" fill="#27ae60"/><circle cx="326" cy="736" r="6" fill="#16a085"/><rect x="336" y="728" width="14" height="14" rx="2" fill="#9b59b6"/><circle cx="343" cy="735" r="1.2" fill="#fdfaf4"/><rect x="354" y="729" width="21" height="13" fill="#2980b9"/><rect x="354" y="716" width="21" height="13" fill="#1abc9c"/><rect x="377" y="729" width="30" height="13" fill="#2c3e50"/><rect x="377" y="710" width="30" height="16" fill="#8e44ad"/><rect x="377" y="700" width="30" height="14" fill="#2c3e50"/><rect x="408" y="706" width="11" height="36" fill="#e67e22"/><rect x="423" y="705" width="10" height="37" fill="#9b59b6"/><rect x="437" y="704" width="12" height="38" fill="#d4845a"/><polygon points="457,742 452,720 463,720" fill="#27ae60"/><polygon points="485.7,727.0 485.7,737.0 477.0,742.0 468.3,737.0 468.3,727.0 477.0,722.0" fill="#1abc9c"/><line x1="488" y1="742" x2="488" y2="718" stroke="#4a4640" stroke-width="1"/><ellipse cx="488" cy="718" rx="3" ry="4" fill="#c0392b"/><rect x="496" y="713" width="15" height="29" fill="#9b59b6"/><rect x="512" y="726" width="35" height="16" fill="#3b82c4"/><rect x="512" y="716" width="35" height="13" fill="#5a9a5a"/><rect x="512" y="706" width="35" height="12" fill="#8e44ad"/><rect x="550" y="713" width="16" height="29" fill="#3498db"/><rect x="568" y="726" width="22" height="16" fill="#2980b9"/><rect x="568" y="710" width="22" height="16" fill="#f39c12"/><rect x="568" y="709" width="22" height="11" fill="#5a9a5a"/><rect x="591" y="697" width="15" height="45" fill="#3498db"/><rect x="609" y="702" width="18" height="40" fill="#8e44ad"/><rect x="628" y="704" width="21" height="38" fill="#e8b84b"/><rect x="653" y="710" width="18" height="32" fill="#2980b9"/><rect x="0" y="820" width="680" height="5" fill="#c8a87a"/><rect x="5" y="769" width="19" height="51" fill="#e67e22"/><rect x="27" y="807" width="36" height="13" fill="#16a085"/><rect x="27" y="796" width="36" height="12" fill="#3b82c4"/><rect x="27" y="775" width="36" height="15" fill="#e67e22"/><rect x="64" y="805" width="20" height="15" fill="#f39c12"/><rect x="64" y="790" width="20" height="15" fill="#9b59b6"/><rect x="64" y="778" width="20" height="14" fill="#e8b84b"/><rect x="88" y="810" width="32" height="10" fill="#9b59b6"/><rect x="88" y="798" width="32" height="11" fill="#5a9a5a"/><rect x="121" y="779" width="12" height="41" fill="#2980b9"/><rect x="135" y="806" width="35" height="14" fill="#8e44ad"/><rect x="135" y="792" width="35" height="14" fill="#27ae60"/><rect x="173" y="806" width="30" height="14" fill="#2980b9"/><rect x="173" y="792" width="30" height="14" fill="#e67e22"/><rect x="206" y="806" width="26" height="14" fill="#f39c12"/><rect x="206" y="798" width="26" height="11" fill="#16a085"/><circle cx="244" cy="811" r="9" fill="#16a085"/><rect x="257" y="810" width="37" height="10" fill="#16a085"/><rect x="257" y="794" width="37" height="13" fill="#3498db"/><rect x="257" y="772" width="37" height="16" fill="#2c3e50"/><rect x="296" y="790" width="21" height="30" fill="#16a085"/><circle cx="329" cy="811" r="9" fill="#2980b9"/><rect x="342" y="784" width="18" height="36" fill="#27ae60"/><rect x="363" y="774" width="21" height="46" fill="#8e44ad"/><rect x="386" y="785" width="18" height="35" fill="#9b59b6"/><rect x="406" y="770" width="15" height="50" fill="#e8b84b"/><circle cx="430" cy="815" r="5" fill="#5a9a5a"/><rect x="436" y="777" width="17" height="43" fill="#e74c3c"/><rect x="455" y="791" width="20" height="29" fill="#16a085"/><rect x="476" y="804" width="21" height="16" fill="#d4845a"/><rect x="476" y="800" width="21" height="10" fill="#e74c3c"/><rect x="501" y="783" width="21" height="37" fill="#1abc9c"/><rect x="523" y="789" width="19" height="31" fill="#3b82c4"/><rect x="545" y="804" width="37" height="16" fill="#8e44ad"/><rect x="545" y="796" width="37" height="12" fill="#2980b9"/><rect x="545" y="772" width="37" height="16" fill="#27ae60"/><rect x="583" y="772" width="17" height="48" fill="#e67e22"/><rect x="603" y="783" width="15" height="37" fill="#e74c3c"/><rect x="620" y="810" width="32" height="10" fill="#e67e22"/><rect x="620" y="790" width="32" height="15" fill="#3498db"/><rect x="620" y="787" width="32" height="11" fill="#5a9a5a"/><rect x="654" y="792" width="13" height="28" fill="#1abc9c"/><rect x="0" y="898" width="680" height="5" fill="#c8a87a"/><rect x="5" y="862" width="22" height="36" fill="#3498db"/><rect x="30" y="883" width="38" height="15" fill="#f39c12"/><rect x="30" y="868" width="38" height="15" fill="#2c3e50"/><circle cx="77" cy="891" r="7" fill="#e8b84b"/><rect x="87" y="848" width="18" height="50" fill="#e74c3c"/><circle cx="114" cy="892" r="6" fill="#5a9a5a"/><rect x="123" y="855" width="12" height="43" fill="#9b59b6"/><polygon points="143,898 137,879 149,879" fill="#2980b9"/><polygon points="160,898 153,881 167,881" fill="#1abc9c"/><rect x="169" y="884" width="36" height="14" fill="#c0392b"/><rect x="169" y="878" width="36" height="10" fill="#5a9a5a"/><rect x="169" y="856" width="36" height="14" fill="#27ae60"/><rect x="207" y="856" width="18" height="42" fill="#e74c3c"/><circle cx="233" cy="891" r="7" fill="#27ae60"/><rect x="241" y="886" width="12" height="12" rx="2" fill="#2980b9"/><circle cx="247" cy="892" r="1.2" fill="#fdfaf4"/><rect x="255" y="883" width="21" height="15" fill="#16a085"/><rect x="255" y="872" width="21" height="13" fill="#3b82c4"/><rect x="255" y="850" width="21" height="16" fill="#f39c12"/><rect x="277" y="883" width="21" height="15" fill="#2c3e50"/><rect x="277" y="870" width="21" height="14" fill="#c0392b"/><rect x="277" y="868" width="21" height="10" fill="#e8b84b"/><rect x="302" y="846" width="12" height="52" fill="#e8b84b"/><rect x="316" y="856" width="16" height="42" fill="#d4845a"/><rect x="336" y="853" width="20" height="45" fill="#3498db"/><rect x="358" y="858" width="18" height="40" fill="#2c3e50"/><rect x="378" y="889" width="9" height="9" rx="2" fill="#9b59b6"/><circle cx="382" cy="894" r="1.2" fill="#fdfaf4"/><circle cx="398" cy="890" r="8" fill="#2980b9"/><rect x="410" y="888" width="10" height="10" rx="2" fill="#3498db"/><circle cx="415" cy="893" r="1.2" fill="#fdfaf4"/><rect x="424" y="847" width="13" height="51" fill="#2c3e50"/><rect x="438" y="886" width="12" height="12" rx="2" fill="#e8b84b"/><circle cx="444" cy="892" r="1.2" fill="#fdfaf4"/><rect x="451" y="851" width="11" height="47" fill="#9b59b6"/><rect x="463" y="885" width="21" height="13" fill="#e8b84b"/><rect x="463" y="876" width="21" height="11" fill="#2980b9"/><rect x="486" y="863" width="14" height="35" fill="#e8b84b"/><rect x="503" y="849" width="12" height="49" fill="#e67e22"/><rect x="517" y="853" width="10" height="45" fill="#d4845a"/><rect x="529" y="882" width="21" height="16" fill="#3498db"/><rect x="529" y="868" width="21" height="15" fill="#e67e22"/><rect x="529" y="859" width="21" height="13" fill="#d4845a"/><rect x="552" y="853" width="22" height="45" fill="#16a085"/><rect x="578" y="887" width="11" height="11" rx="2" fill="#9b59b6"/><circle cx="583" cy="893" r="1.2" fill="#fdfaf4"/><polygon points="611.5,881.5 611.5,892.5 602.0,898.0 592.5,892.5 592.5,881.5 602.0,876.0" fill="#2980b9"/><rect x="617" y="886" width="24" height="12" fill="#9b59b6"/><rect x="617" y="874" width="24" height="12" fill="#27ae60"/><rect x="617" y="859" width="24" height="13" fill="#c0392b"/><rect x="644" y="885" width="26" height="13" fill="#f39c12"/><rect x="644" y="866" width="26" height="16" fill="#e8b84b"/>
</g>
</svg>