<svg viewBox="20 60 360 400" xmlns="http://www.w3.org/2000/svg">

<!-- SFONDO -->
<rect width="400" height="460" fill="#f5f0e8"/>

<!-- TAVOLO -->
<rect x="0" y="300" width="400" height="160" fill="#e8b84b"/>
<rect x="0" y="300" width="400" height="8" fill="#c8a030"/>

<!-- PLANCIA sul tavolo -->
<rect x="60" y="318" width="280" height="130" fill="#b8ccd8" rx="3"/>
<rect x="60" y="318" width="280" height="130" fill="none" stroke="#2c3e50" stroke-width="2" rx="3"/>
<rect x="68" y="326" width="70" height="50" fill="#8aaa7a" rx="1"/>
<rect x="68" y="380" width="70" height="60" fill="#c0392b" rx="1" opacity="0.7"/>
<rect x="144" y="326" width="60" height="114" fill="#e8b84b" rx="1" opacity="0.6"/>
<rect x="210" y="326" width="50" height="60" fill="#9b59b6" rx="1" opacity="0.7"/>
<rect x="210" y="390" width="50" height="50" fill="#3b82c4" rx="1" opacity="0.7"/>
<rect x="266" y="326" width="66" height="114" fill="#27ae60" rx="1" opacity="0.6"/>

<!-- SCATOLA MAGNIFICO sinistra -->
<rect x="14" y="230" width="68" height="82" fill="#d4845a" rx="3"/>
<rect x="14" y="230" width="68" height="14" fill="#b8663c" rx="3"/>
<rect x="18" y="248" width="60" height="58" fill="#c07040" rx="2"/>
<ellipse cx="48" cy="265" rx="18" ry="18" fill="#8e44ad" opacity="0.7"/>
<rect x="30" y="280" width="36" height="22" fill="#2c3e50" opacity="0.7" rx="1"/>

<!-- CORPO maglione navy -->
<polygon points="120,300 280,300 310,460 90,460" fill="#2c3e50"/>
<!-- colletto camicia azzurra -->
<polygon points="178,270 222,270 235,300 165,300" fill="#3498db"/>
<!-- colletto maglione V -->
<polygon points="178,272 200,295 222,272 222,270 200,290 178,270" fill="#2c3e50"/>

<!-- COLLO -->
<rect x="178" y="240" width="44" height="36" fill="#dda880" rx="4"/>

<!-- CAPELLI -->
<ellipse cx="200" cy="160" rx="76" ry="82" fill="#e8e2d8"/>
<ellipse cx="200" cy="110" rx="72" ry="44" fill="#d8d2c8"/>
<rect x="126" y="120" width="18" height="60" fill="#c8c2b8" rx="6"/>
<rect x="256" y="120" width="18" height="60" fill="#c8c2b8" rx="6"/>

<!-- FACCIA -->
<ellipse cx="200" cy="168" rx="64" ry="70" fill="#dda880"/>
<ellipse cx="136" cy="168" rx="10" ry="13" fill="#cc9870"/>
<ellipse cx="264" cy="168" rx="10" ry="13" fill="#cc9870"/>

<!-- SOPRACCIGLIA -->
<path d="M 158 136 Q 174 130 188 134" fill="none" stroke="#8a7260" stroke-width="3" stroke-linecap="round"/>
<path d="M 212 134 Q 226 130 242 136" fill="none" stroke="#8a7260" stroke-width="3" stroke-linecap="round"/>

<!-- OCCHI -->
<ellipse cx="174" cy="152" rx="14" ry="10" fill="#fdfaf4"/>
<ellipse cx="226" cy="152" rx="14" ry="10" fill="#fdfaf4"/>
<circle cx="174" cy="153" r="7" fill="#3b82c4"/>
<circle cx="174" cy="153" r="4.5" fill="#1a1814"/>
<circle cx="171" cy="150" r="1.8" fill="#fdfaf4"/>
<circle cx="226" cy="153" r="7" fill="#3b82c4"/>
<circle cx="226" cy="153" r="4.5" fill="#1a1814"/>
<circle cx="223" cy="150" r="1.8" fill="#fdfaf4"/>

<!-- OCCHIALI -->
<rect x="155" y="144" width="38" height="22" rx="7" fill="none" stroke="#6a6050" stroke-width="2.2"/>
<rect x="207" y="144" width="38" height="22" rx="7" fill="none" stroke="#6a6050" stroke-width="2.2"/>
<line x1="193" y1="153" x2="207" y2="153" stroke="#6a6050" stroke-width="2"/>
<line x1="155" y1="153" x2="138" y2="158" stroke="#6a6050" stroke-width="1.8"/>
<line x1="245" y1="153" x2="262" y2="158" stroke="#6a6050" stroke-width="1.8"/>

<!-- NASO -->
<path d="M 198 162 Q 192 178 196 184 Q 200 188 204 184 Q 208 178 202 162" fill="#cc9870" opacity="0.5"/>

<!-- BOCCA -->
<path d="M 182 198 Q 200 208 218 198" fill="none" stroke="#b87060" stroke-width="2.5" stroke-linecap="round"/>

<!-- MANO -->
<ellipse cx="318" cy="295" rx="22" ry="14" fill="#dda880"/>
<ellipse cx="330" cy="285" rx="8" ry="5" fill="#dda880" transform="rotate(-20,330,285)"/>

<!-- FORME decorative indefinite in alto -->
<ellipse cx="34" cy="38" rx="22" ry="22" fill="#c0392b" opacity="0.9"/>
<ellipse cx="32" cy="36" rx="14" ry="14" fill="#962d22"/>

<polygon points="354,14 374,14 384,30 374,46 354,46 344,30" fill="#e8b84b"/>
<polygon points="358,20 370,20 376,30 370,40 358,40 352,30" fill="#c8921a"/>

<rect x="354" y="56" width="30" height="30" rx="4" fill="#27ae60"/>
<rect x="360" y="62" width="18" height="18" rx="2" fill="#1d7a42"/>

<ellipse cx="34" cy="92" rx="14" ry="14" fill="#3498db"/>
<ellipse cx="34" cy="92" rx="8" ry="8" fill="#1d64a6"/>

<polygon points="352,96 364,89 376,96 376,110 364,117 352,110" fill="#9b59b6"/>
<polygon points="356,100 364,95 372,100 372,106 364,111 356,106" fill="#7d3b98"/>

</svg>
